<svg width="8" height="15" viewBox="0 0 8 15" fill="none" xmlns="http://www.w3.org/2000/svg">
<path d="M0.985076 14.337L7.46258 7.69205C7.57634 7.57533 7.64001 7.41879 7.64001 7.2558C7.64001 7.0928 7.57634 6.93626 7.46258 6.81955L0.985076 0.172045C0.932081 0.117616 0.868719 0.074355 0.79873 0.0448158C0.728741 0.0152765 0.653544 5.8651e-05 0.577577 5.8651e-05C0.501609 5.8651e-05 0.426411 0.0152765 0.356422 0.0448158C0.286433 0.074355 0.223071 0.117616 0.170076 0.172045C0.0610483 0.283668 9.89437e-06 0.433512 9.89437e-06 0.589546C9.89437e-06 0.74558 0.0610483 0.895424 0.170076 1.00705L6.26133 7.2558L0.170076 13.5033C0.0614223 13.6149 0.000620246 13.7644 0.000620246 13.9202C0.000620246 14.0759 0.0614223 14.2255 0.170076 14.337C0.223071 14.3915 0.286433 14.4347 0.356422 14.4643C0.426411 14.4938 0.501609 14.509 0.577577 14.509C0.653544 14.509 0.728741 14.4938 0.79873 14.4643C0.868719 14.4347 0.932081 14.3915 0.985076 14.337V14.337Z" fill="white"/>
</svg>
