<svg width="53" height="41" viewBox="0 0 53 41" fill="none" xmlns="http://www.w3.org/2000/svg">
<path d="M44.4562 4.09717C41.0918 2.53515 37.5325 1.42528 33.8724 0.796875C33.4165 1.61474 32.8839 2.71477 32.5165 3.5899C28.5703 3.00111 24.6604 3.00111 20.7867 3.5899C20.4195 2.71497 19.8749 1.61474 19.4148 0.796875C15.7511 1.42557 12.1888 2.53827 8.82276 4.10532C2.12469 14.149 0.308889 23.9429 1.21669 33.5982C5.65929 36.8901 9.96463 38.8899 14.1974 40.1985C15.2494 38.7631 16.1793 37.2434 16.9775 35.6551C15.4578 35.0809 13.9927 34.3734 12.5997 33.5409C12.9662 33.2713 13.3242 32.9903 13.673 32.6984C22.1141 36.6161 31.2859 36.6161 39.6264 32.6984C39.9767 32.9884 40.3346 33.2693 40.6995 33.5409C39.3043 34.3756 37.8365 35.0845 36.3137 35.6592C37.1164 37.254 38.0447 38.7752 39.0938 40.2025C43.3306 38.8941 47.6399 36.8943 52.0825 33.5982C53.1478 22.4054 50.2629 12.7014 44.4562 4.09717ZM18.1276 27.6603C15.5936 27.6603 13.5155 25.3129 13.5155 22.4545C13.5155 19.596 15.5493 17.2446 18.1276 17.2446C20.7061 17.2446 22.784 19.5919 22.7397 22.4545C22.7438 25.3129 20.7061 27.6603 18.1276 27.6603ZM35.1716 27.6603C32.6376 27.6603 30.5596 25.3129 30.5596 22.4545C30.5596 19.596 32.5933 17.2446 35.1716 17.2446C37.7501 17.2446 39.828 19.5919 39.7837 22.4545C39.7837 25.3129 37.7501 27.6603 35.1716 27.6603Z" fill="#A5A5A5"/>
</svg>
