<svg width="53" height="41" viewBox="0 0 52 40" fill="none" xmlns="http://www.w3.org/2000/svg">
<path d="M43.4573 3.30029C40.0929 1.73828 36.5336 0.628401 32.8735 0C32.4176 0.817865 31.885 1.9179 31.5177 2.79303C27.5714 2.20424 23.6615 2.20424 19.7878 2.79303C19.4207 1.91809 18.876 0.817865 18.4159 0C14.7522 0.628691 11.1899 1.7414 7.82389 3.30844C1.12582 13.3521 -0.689982 23.146 0.217818 32.8013C4.66042 36.0932 8.96576 38.093 13.1985 39.4017C14.2505 37.9662 15.1804 36.4465 15.9787 34.8582C14.4589 34.2841 12.9938 33.5765 11.6008 32.744C11.9674 32.4744 12.3253 32.1934 12.6741 31.9015C21.1152 35.8192 30.287 35.8192 38.6275 31.9015C38.9779 32.1915 39.3357 32.4724 39.7007 32.744C38.3054 33.5787 36.8376 34.2877 35.3148 34.8624C36.1176 36.4571 37.0458 37.9783 38.0949 39.4057C42.3317 38.0972 46.641 36.0974 51.0836 32.8013C52.1489 21.6085 49.264 11.9045 43.4573 3.30029ZM17.1287 26.8635C14.5947 26.8635 12.5166 24.5161 12.5166 21.6576C12.5166 18.7992 14.5504 16.4478 17.1287 16.4478C19.7072 16.4478 21.7852 18.795 21.7409 21.6576C21.7449 24.5161 19.7072 26.8635 17.1287 26.8635ZM34.1727 26.8635C31.6387 26.8635 29.5608 24.5161 29.5608 21.6576C29.5608 18.7992 31.5944 16.4478 34.1727 16.4478C36.7512 16.4478 38.8291 18.795 38.7849 21.6576C38.7849 24.5161 36.7512 26.8635 34.1727 26.8635Z" fill="white"/>
</svg>
