<svg width="45" height="45" viewBox="0 0 45 45" fill="none" xmlns="http://www.w3.org/2000/svg">
<path fill-rule="evenodd" clip-rule="evenodd" d="M13.4099 0.328655C15.7884 0.219157 16.5468 0.194824 22.6057 0.194824C28.6645 0.194824 29.4229 0.221185 31.7994 0.328655C34.1759 0.436125 35.7981 0.815311 37.2175 1.36483C38.7038 1.92651 40.0523 2.80452 41.1675 3.94005C42.3031 5.05328 43.1791 6.39969 43.7387 7.88805C44.2903 9.30747 44.6674 10.9297 44.7769 13.3021C44.8864 15.6847 44.9107 16.4431 44.9107 22.4999C44.9107 28.5588 44.8844 29.3172 44.7769 31.6957C44.6694 34.0681 44.2903 35.6903 43.7387 37.1097C43.179 38.5983 42.3016 39.9469 41.1675 41.0618C40.0523 42.1973 38.7038 43.0733 37.2175 43.633C35.7981 44.1845 34.1759 44.5617 31.8035 44.6712C29.4229 44.7807 28.6645 44.805 22.6057 44.805C16.5468 44.805 15.7884 44.7786 13.4099 44.6712C11.0374 44.5637 9.41524 44.1845 7.99582 43.633C6.5073 43.0732 5.15866 42.1958 4.04377 41.0618C2.90901 39.9479 2.03086 38.5999 1.47057 37.1118C0.921055 35.6924 0.543896 34.0702 0.434398 31.6977C0.3249 29.3151 0.300568 28.5568 0.300568 22.4999C0.300568 16.441 0.326928 15.6827 0.434398 13.3062C0.541868 10.9297 0.921055 9.30747 1.47057 7.88805C2.03169 6.39986 2.9105 5.05188 4.04579 3.93802C5.1591 2.80351 6.50639 1.92538 7.99379 1.36483C9.41321 0.815311 11.0354 0.438152 13.4078 0.328655H13.4099ZM31.6189 4.34357C29.2668 4.2361 28.5611 4.2138 22.6057 4.2138C16.6502 4.2138 15.9445 4.2361 13.5924 4.34357C11.4166 4.44293 10.2365 4.80589 9.44971 5.11208C8.40948 5.51763 7.6653 5.9982 6.88462 6.77888C6.14459 7.49883 5.57507 8.37528 5.21782 9.34396C4.91164 10.1307 4.54867 11.3109 4.44931 13.4866C4.34184 15.8388 4.31954 16.5445 4.31954 22.4999C4.31954 28.4554 4.34184 29.161 4.44931 31.5132C4.54867 33.6889 4.91164 34.8691 5.21782 35.6559C5.57471 36.6231 6.1445 37.5011 6.88462 38.2209C7.60447 38.9611 8.48248 39.5309 9.44971 39.8877C10.2365 40.1939 11.4166 40.5569 13.5924 40.6562C15.9445 40.7637 16.6482 40.786 22.6057 40.786C28.5631 40.786 29.2668 40.7637 31.6189 40.6562C33.7947 40.5569 34.9748 40.1939 35.7616 39.8877C36.8018 39.4822 37.546 39.0016 38.3267 38.2209C39.0668 37.5011 39.6366 36.6231 39.9935 35.6559C40.2997 34.8691 40.6626 33.6889 40.762 31.5132C40.8695 29.161 40.8918 28.4554 40.8918 22.4999C40.8918 16.5445 40.8695 15.8388 40.762 13.4866C40.6626 11.3109 40.2997 10.1307 39.9935 9.34396C39.5879 8.30374 39.1074 7.55956 38.3267 6.77888C37.6067 6.0389 36.7303 5.46939 35.7616 5.11208C34.9748 4.80589 33.7947 4.44293 31.6189 4.34357ZM19.7567 29.376C21.3478 30.0383 23.1194 30.1277 24.7691 29.6289C26.4188 29.1301 27.8441 28.074 28.8016 26.641C29.7592 25.2081 30.1895 23.4872 30.0191 21.7722C29.8488 20.0572 29.0883 18.4545 27.8676 17.2379C27.0895 16.4603 26.1485 15.8648 25.1126 15.4944C24.0767 15.124 22.9715 14.9879 21.8767 15.0959C20.7818 15.2039 19.7246 15.5532 18.7809 16.1189C17.8373 16.6845 17.0309 17.4524 16.4196 18.3671C15.8084 19.2818 15.4076 20.3207 15.246 21.4089C15.0845 22.4971 15.1662 23.6076 15.4853 24.6605C15.8045 25.7133 16.3531 26.6823 17.0917 27.4977C17.8303 28.3131 18.7404 28.9546 19.7567 29.376ZM14.4988 14.393C15.5634 13.3284 16.8273 12.4839 18.2182 11.9078C19.6092 11.3316 21.1001 11.035 22.6057 11.035C24.1112 11.035 25.6021 11.3316 26.9931 11.9078C28.384 12.4839 29.6479 13.3284 30.7125 14.393C31.7771 15.4576 32.6216 16.7215 33.1978 18.1125C33.774 19.5035 34.0705 20.9943 34.0705 22.4999C34.0705 24.0055 33.774 25.4963 33.1978 26.8873C32.6216 28.2783 31.7771 29.5422 30.7125 30.6068C28.5625 32.7569 25.6463 33.9648 22.6057 33.9648C19.565 33.9648 16.6488 32.7569 14.4988 30.6068C12.3487 28.4567 11.1408 25.5406 11.1408 22.4999C11.1408 19.4592 12.3487 16.5431 14.4988 14.393ZM36.6132 12.7424C36.8771 12.4936 37.0883 12.1943 37.2343 11.8624C37.3804 11.5304 37.4584 11.1725 37.4637 10.8099C37.469 10.4472 37.4015 10.0872 37.2651 9.75115C37.1288 9.41508 36.9264 9.10978 36.6699 8.85333C36.4135 8.59688 36.1082 8.39449 35.7721 8.25815C35.4361 8.1218 35.076 8.05428 34.7134 8.05956C34.3508 8.06485 33.9929 8.14284 33.6609 8.28893C33.329 8.43501 33.0297 8.64621 32.7808 8.91003C32.2968 9.42311 32.0318 10.1046 32.0421 10.8099C32.0524 11.5151 32.3371 12.1886 32.8359 12.6874C33.3346 13.1861 34.0081 13.4709 34.7134 13.4812C35.4187 13.4914 36.1002 13.2264 36.6132 12.7424Z" fill="#A5A5A5"/>
</svg>
