<svg width="51" height="51" viewBox="0 0 51 51" fill="none" xmlns="http://www.w3.org/2000/svg">
<path d="M25.5 27.625C29.0208 27.625 31.875 24.7708 31.875 21.25C31.875 17.7292 29.0208 14.875 25.5 14.875C21.9792 14.875 19.125 17.7292 19.125 21.25C19.125 24.7708 21.9792 27.625 25.5 27.625Z" stroke="#E7E7E7" stroke-width="2" stroke-linecap="round" stroke-linejoin="round"/>
<path d="M25.5 4.25C20.9913 4.25 16.6673 6.04107 13.4792 9.22918C10.2911 12.4173 8.5 16.7413 8.5 21.25C8.5 25.2705 9.35425 27.9012 11.6875 30.8125L25.5 46.75L39.3125 30.8125C41.6458 27.9012 42.5 25.2705 42.5 21.25C42.5 16.7413 40.7089 12.4173 37.5208 9.22918C34.3327 6.04107 30.0087 4.25 25.5 4.25V4.25Z" stroke="#E7E7E7" stroke-width="2" stroke-linecap="round" stroke-linejoin="round"/>
</svg>
