<svg width="8" height="16" viewBox="0 0 8 16" fill="none" xmlns="http://www.w3.org/2000/svg">
<path d="M6.9025 0.917593L0.424997 7.56259C0.31123 7.67931 0.247559 7.83585 0.247559 7.99884C0.247559 8.16183 0.31123 8.31838 0.424997 8.43509L6.9025 15.0826C6.95549 15.137 7.01885 15.1803 7.08884 15.2098C7.15883 15.2394 7.23403 15.2546 7.31 15.2546C7.38596 15.2546 7.46116 15.2394 7.53115 15.2098C7.60114 15.1803 7.6645 15.137 7.7175 15.0826C7.82652 14.971 7.88756 14.8211 7.88756 14.6651C7.88756 14.5091 7.82652 14.3592 7.7175 14.2476L1.62625 7.99884L7.7175 1.75134C7.82615 1.63978 7.88695 1.4902 7.88695 1.33447C7.88695 1.17874 7.82615 1.02916 7.7175 0.917593C7.6645 0.863164 7.60114 0.819903 7.53115 0.790363C7.46116 0.760824 7.38596 0.745605 7.31 0.745605C7.23403 0.745605 7.15883 0.760824 7.08884 0.790363C7.01885 0.819903 6.95549 0.863164 6.9025 0.917593V0.917593Z" fill="white"/>
</svg>
