<svg width="34" height="43" viewBox="0 0 34 43" fill="none" xmlns="http://www.w3.org/2000/svg">
<path d="M3.8383 12.7598C3.22948 8.74988 6.05679 5.14801 10.3759 3.82838C11.1423 3.59404 11.9693 3.66075 12.6883 4.01491C13.4072 4.36907 13.9641 4.98403 14.2455 5.73451L15.632 9.43201C15.8553 10.0268 15.8956 10.6748 15.7479 11.2927C15.6003 11.9107 15.2713 12.4704 14.8033 12.9L10.6787 16.6772C10.4754 16.8638 10.3239 17.0998 10.239 17.3624C10.154 17.6249 10.1386 17.905 10.1942 18.1753L10.2324 18.3411L10.3312 18.7554C10.8442 20.7688 11.6258 22.704 12.6549 24.5089C13.776 26.4268 15.1673 28.1734 16.7859 29.6949L16.9134 29.8097C17.1193 29.9925 17.3691 30.1188 17.6383 30.1763C17.9076 30.2339 18.1872 30.2207 18.4498 30.138L23.7825 28.4582C24.3885 28.2679 25.0376 28.263 25.6464 28.4442C26.2553 28.6254 26.7961 28.9843 27.1995 29.475L29.724 32.5382C30.7759 33.8132 30.6484 35.6874 29.4403 36.8126C26.1349 39.8949 21.5895 40.5261 18.4275 37.9856C14.5516 34.8592 11.2841 31.0461 8.78848 26.7369C6.27256 22.4311 4.59202 17.689 3.83511 12.7598H3.8383ZM13.5379 18.3857L16.9549 15.2492C17.8915 14.3903 18.55 13.271 18.8459 12.0352C19.1418 10.7993 19.0616 9.50316 18.6155 8.31319L17.2322 4.61569C16.6659 3.10561 15.5451 1.86826 14.0983 1.15579C12.6514 0.443311 10.9873 0.309325 9.44511 0.781131C4.08055 2.42269 -0.225767 7.23263 0.685858 13.2411C1.32336 17.4358 2.7928 22.7717 6.03448 28.3434C8.727 32.9899 12.2516 37.1011 16.4321 40.4719C21.1751 44.2809 27.5055 42.9804 31.6174 39.1491C32.7939 38.0536 33.5081 36.5504 33.6141 34.9463C33.7201 33.3422 33.21 31.7581 32.1879 30.5173L29.6634 27.4509C28.8558 26.4707 27.7739 25.7541 26.5562 25.3929C25.3386 25.0317 24.0409 25.0424 22.8294 25.4237L18.402 26.8166C17.2589 25.638 16.2575 24.3297 15.4185 22.9183C14.608 21.4915 13.9763 19.9702 13.5379 18.3889V18.3857Z" fill="#E6E6E6"/>
</svg>
