<svg width="1375" height="851" viewBox="0 0 1375 851" fill="none" xmlns="http://www.w3.org/2000/svg">
<path d="M995.766 503.603C991.13 521.913 978.149 537.238 958.544 549.26C938.935 561.284 912.734 569.978 881.751 575.019C819.787 585.102 738.818 580.555 653.546 558.961C568.273 537.367 494.9 502.829 445.202 464.47C420.353 445.29 401.448 425.174 389.925 405.267C378.404 385.363 374.283 365.706 378.919 347.397C383.556 329.087 396.536 313.762 416.141 301.74C435.75 289.716 461.951 281.022 492.934 275.981C554.898 265.898 635.867 270.445 721.14 292.039C806.412 313.633 879.786 348.171 929.483 386.53C954.332 405.71 973.238 425.826 984.761 445.733C996.281 465.637 1000.4 485.294 995.766 503.603Z" stroke="url(#paint0_linear_9_13)" stroke-width="1.24147"/>
<path d="M1135.73 539.047C1128.97 565.741 1110.05 588.062 1081.53 605.554C1053 623.049 1014.89 635.69 969.85 643.019C879.774 657.675 762.093 651.064 638.169 619.683C514.246 588.301 407.601 538.105 335.358 482.344C299.235 454.463 271.738 425.208 254.972 396.243C238.208 367.281 232.192 338.646 238.952 311.952C245.712 285.259 264.631 262.938 293.159 245.445C321.69 227.951 359.797 215.31 404.836 207.981C494.911 193.324 612.593 199.936 736.516 231.317C860.44 262.699 967.084 312.894 1039.33 368.656C1075.45 396.537 1102.95 425.791 1119.71 454.757C1136.48 483.719 1142.49 512.354 1135.73 539.047Z" stroke="url(#paint1_linear_9_13)" stroke-width="1.24147"/>
<path d="M1306.05 582.177C1296.7 619.072 1270.56 649.905 1231.17 674.054C1191.79 698.206 1139.19 715.65 1077.05 725.761C952.767 745.984 790.413 736.861 619.459 693.569C448.504 650.278 301.376 581.03 201.697 504.093C151.857 465.624 113.905 425.251 90.759 385.263C67.6153 345.279 59.2952 305.718 68.6383 268.823C77.9813 231.928 104.127 201.095 143.512 176.946C182.9 152.794 235.494 135.35 297.636 125.239C421.918 105.016 584.272 114.139 755.227 157.431C926.181 200.722 1073.31 269.97 1172.99 346.907C1222.83 385.377 1260.78 425.749 1283.93 465.737C1307.07 505.721 1315.39 545.282 1306.05 582.177Z" stroke="url(#paint2_linear_9_13)" stroke-width="1.24147"/>
<defs>
<linearGradient id="paint0_linear_9_13" x1="399.963" y1="336.641" x2="934.928" y2="558.579" gradientUnits="userSpaceOnUse">
<stop stop-color="#484848"/>
<stop offset="0.491388" stop-color="#484848" stop-opacity="0.36"/>
<stop offset="1" stop-color="#484848"/>
</linearGradient>
<linearGradient id="paint1_linear_9_13" x1="269.8" y1="296.394" x2="1047.07" y2="618.854" gradientUnits="userSpaceOnUse">
<stop stop-color="#484848"/>
<stop offset="0.491388" stop-color="#484848" stop-opacity="0.36"/>
<stop offset="1" stop-color="#484848"/>
</linearGradient>
<linearGradient id="paint2_linear_9_13" x1="111.415" y1="247.421" x2="1183.52" y2="692.198" gradientUnits="userSpaceOnUse">
<stop stop-color="#484848"/>
<stop offset="0.491388" stop-color="#484848" stop-opacity="0.36"/>
<stop offset="1" stop-color="#484848"/>
</linearGradient>
</defs>
</svg>
