<svg width="51" height="51" viewBox="0 0 51 51" fill="none" xmlns="http://www.w3.org/2000/svg">
<g clip-path="url(#clip0_196_26)">
<path d="M45.3333 8.5H5.66659C4.91514 8.5 4.19447 8.79851 3.66312 9.32986C3.13176 9.86122 2.83325 10.5819 2.83325 11.3333V39.6667C2.83325 40.4181 3.13176 41.1388 3.66312 41.6701C4.19447 42.2015 4.91514 42.5 5.66659 42.5H45.3333C46.0847 42.5 46.8054 42.2015 47.3367 41.6701C47.8681 41.1388 48.1666 40.4181 48.1666 39.6667V11.3333C48.1666 10.5819 47.8681 9.86122 47.3367 9.32986C46.8054 8.79851 46.0847 8.5 45.3333 8.5V8.5ZM43.1516 39.6667H8.01825L17.9349 29.41L15.8949 27.4408L5.66659 38.0233V13.4867L23.2758 31.0108C23.8066 31.5385 24.5247 31.8347 25.2733 31.8347C26.0218 31.8347 26.7399 31.5385 27.2708 31.0108L45.3333 13.0475V37.8392L34.9066 27.4125L32.9091 29.41L43.1516 39.6667ZM7.52242 11.3333H43.0382L25.2733 28.9992L7.52242 11.3333Z" fill="#D7D7D7"/>
</g>
<defs>
<clipPath id="clip0_196_26">
<rect width="51" height="51" fill="white"/>
</clipPath>
</defs>
</svg>
