<svg width="59" height="59" viewBox="0 0 59 59" fill="none" xmlns="http://www.w3.org/2000/svg">
<path d="M29.3763 0.875C13.5687 0.875 0.751404 13.6923 0.751404 29.4999C0.751404 45.3074 13.5687 58.1247 29.3763 58.1247C45.1838 58.1247 58.0011 45.3074 58.0011 29.4999C58.0011 13.6923 45.1838 0.875 29.3763 0.875ZM45.7333 17.0851L43.1264 19.5834C42.8964 19.7559 42.7878 20.037 42.8325 20.3118V38.6943C42.7878 38.9755 42.8964 39.2566 43.1264 39.4227L45.6822 41.921V42.4769H32.8521V41.9466L35.491 39.3844C35.753 39.1224 35.753 39.0457 35.753 38.656V23.7813L28.4051 42.413H27.4147L18.8656 23.7813V36.2727C18.7889 36.7966 18.9742 37.327 19.3448 37.7039L22.7823 41.8635V42.4194H13.0192V41.8635L16.4567 37.7039C16.6379 37.5169 16.7726 37.29 16.8503 37.0414C16.928 36.7929 16.9464 36.5296 16.904 36.2727V21.8325C16.9487 21.4299 16.7954 21.0402 16.4887 20.7654L13.4345 17.0851V16.5292H22.9229L30.2452 32.5988L36.6922 16.542H45.7333V17.0851Z" fill="#A5A5A5"/>
</svg>
