<svg width="48" height="45" viewBox="0 0 48 45" fill="none" xmlns="http://www.w3.org/2000/svg">
<path d="M44.2837 0.199392C43.7052 0.244015 43.1374 0.387908 42.6025 0.625455H42.5952C42.0817 0.841353 39.64 1.93039 35.9279 3.58115L22.6257 9.52121C13.0806 13.7818 3.69773 17.9775 3.69773 17.9775L3.80945 17.9317C3.80945 17.9317 3.16254 18.1571 2.4868 18.6481C2.06933 18.9298 1.7101 19.2983 1.43084 19.7315C1.09928 20.2473 0.832585 21.0364 0.931694 21.8522C1.09387 23.2317 1.9372 24.059 2.54266 24.5156C3.15534 24.978 3.73918 25.1939 3.73918 25.1939H3.75359L12.5527 28.3368C12.9473 29.6799 15.234 37.651 15.7836 39.4871C16.108 40.5837 16.4233 41.2696 16.8179 41.7932C17.0089 42.0606 17.2324 42.2842 17.5009 42.4638C17.6405 42.5499 17.7893 42.6178 17.9442 42.6663L17.8541 42.6434C17.8811 42.651 17.9027 42.6739 17.9226 42.6816C17.9946 42.7026 18.0433 42.7102 18.1352 42.7255C19.5281 43.1726 20.6471 42.2555 20.6471 42.2555L20.7102 42.202L25.9053 37.1867L34.6125 44.2693L34.8107 44.3591C36.6253 45.2036 38.4633 44.7336 39.4346 43.9044C40.413 43.0694 40.7933 42.0014 40.7933 42.0014L40.8563 41.8295L44.2206 23.5555L47.5849 5.28159C47.7759 4.37978 47.8246 3.5353 47.6138 2.71565C47.3963 1.88612 46.8944 1.17267 46.2064 0.715253C45.6287 0.342906 44.9589 0.163183 44.2837 0.199392ZM44.1017 4.11612C44.0945 4.23649 44.1161 4.22311 44.0657 4.4543V4.47531L37.4001 40.643C37.3713 40.6946 37.3227 40.8073 37.1893 40.92C37.0488 41.0385 36.937 41.113 36.3514 40.8665L25.7017 32.2096L19.2686 38.4267L20.6201 29.2749L38.02 12.0795C38.7372 11.3726 38.4975 11.2236 38.4975 11.2236C38.548 10.3561 37.4146 10.9694 37.4146 10.9694L15.4737 25.3811L15.4665 25.3429L4.95011 21.5886V21.5809L4.92308 21.5752C4.94151 21.5687 4.95956 21.561 4.97714 21.5523L5.0348 21.5217L5.09066 21.5007C5.09066 21.5007 14.4808 17.305 24.0259 13.0444C28.8047 10.9102 33.6196 8.76079 37.3227 7.10239C39.5188 6.12226 41.7172 5.14785 43.9179 4.17917C44.0657 4.11803 43.9954 4.11803 44.1017 4.11803V4.11612Z" fill="#A5A5A5"/>
</svg>
